<?xml version="1.0" standalone="no"?>
<!DOCTYPE svg PUBLIC "-//W3C//DTD SVG 20010904//EN"
 "http://www.w3.org/TR/2001/REC-SVG-20010904/DTD/svg10.dtd">
<svg version="1.0" xmlns="http://www.w3.org/2000/svg"
 width="300.000000pt" height="204.000000pt" viewBox="0 0 300.000000 204.000000"
 preserveAspectRatio="xMidYMid meet">
<metadata>
Created by potrace 1.10, written by Peter Selinger 2001-2011
</metadata>
<g transform="translate(0.000000,204.000000) scale(0.100000,-0.100000)"
fill="#000000" stroke="none">
<path d="M880 1407 c-307 -167 -425 -218 -448 -195 -18 18 -74 4 -95 -24 -26
-35 -15 -75 25 -97 41 -23 79 -5 105 47 0 2 27 10 60 19 36 9 177 80 369 185
l312 169 448 -60 c247 -34 460 -64 472 -67 13 -2 36 -18 52 -35 22 -24 34 -30
61 -27 46 4 70 44 49 82 -16 31 -55 44 -81 28 -14 -9 -25 -8 -51 7 -23 13
-104 28 -278 51 -135 17 -342 45 -460 61 -118 16 -217 29 -220 29 -3 0 -147
-78 -320 -173z m802 93 c246 -33 458 -65 472 -72 25 -11 33 -28 20 -41 -4 -3
-15 -2 -26 4 -11 6 -228 39 -483 73 l-462 62 -314 -173 c-339 -186 -429 -221
-429 -169 0 7 24 18 56 25 38 9 156 68 371 186 174 95 323 171 332 169 9 -2
217 -31 463 -64z m581 -119 c6 -25 0 -31 -29 -31 -26 0 -38 14 -30 35 8 22 53
19 59 -4z m-1839 -204 c13 -9 16 -20 12 -34 -12 -37 -70 -37 -82 -1 -6 22 16
48 41 48 6 0 19 -6 29 -13z"/>
</g>
</svg>
